<?xml version="1.0" encoding="UTF-8" standalone="no" ?>
<!DOCTYPE svg PUBLIC "-//W3C//DTD SVG 1.1//EN" "http://www.w3.org/Graphics/SVG/1.1/DTD/svg11.dtd">
<svg xmlns="http://www.w3.org/2000/svg" xmlns:xlink="http://www.w3.org/1999/xlink" version="1.1" width="1080" height="1080" viewBox="0 0 1080 1080" xml:space="preserve">
<desc>Created with Fabric.js 5.2.4</desc>
<defs>
</defs>
<g transform="matrix(1 0 0 1 540 540)" id="16942e62-ccb6-4b77-8304-20cc961bd257"  >
<rect style="stroke: none; stroke-width: 1; stroke-dasharray: none; stroke-linecap: butt; stroke-dashoffset: 0; stroke-linejoin: miter; stroke-miterlimit: 4; fill: rgb(255,255,255); fill-rule: nonzero; opacity: 1; visibility: hidden;" vector-effect="non-scaling-stroke"  x="-540" y="-540" rx="0" ry="0" width="1080" height="1080" />
</g>
<g transform="matrix(1 0 0 1 540 540)" id="2bfe9afd-27a0-48aa-9282-6f373909db38"  >
</g>
<g transform="matrix(1.39 0 0 1.39 540 540)"  >
<g style=""   >
		<g transform="matrix(1 0 0 1 89.56 386.75)"  >
<ellipse style="stroke: none; stroke-width: 1; stroke-dasharray: none; stroke-linecap: butt; stroke-dashoffset: 0; stroke-linejoin: miter; stroke-miterlimit: 4; fill: rgb(243,122,122); fill-rule: nonzero; opacity: 1;" vector-effect="non-scaling-stroke"  cx="0" cy="0" rx="15.1562" ry="15.3208" />
</g>
		<g transform="matrix(1 0 0 1 159.88 386.75)"  >
<ellipse style="stroke: none; stroke-width: 1; stroke-dasharray: none; stroke-linecap: butt; stroke-dashoffset: 0; stroke-linejoin: miter; stroke-miterlimit: 4; fill: rgb(243,122,122); fill-rule: nonzero; opacity: 1;" vector-effect="non-scaling-stroke"  cx="0" cy="0" rx="15.1562" ry="15.3208" />
</g>
		<g transform="matrix(1 0 0 1 230.21 386.75)"  >
<ellipse style="stroke: none; stroke-width: 1; stroke-dasharray: none; stroke-linecap: butt; stroke-dashoffset: 0; stroke-linejoin: miter; stroke-miterlimit: 4; fill: rgb(243,122,122); fill-rule: nonzero; opacity: 1;" vector-effect="non-scaling-stroke"  cx="0" cy="0" rx="15.1562" ry="15.3208" />
</g>
		<g transform="matrix(1 0 0 1 300.53 386.75)"  >
<ellipse style="stroke: none; stroke-width: 1; stroke-dasharray: none; stroke-linecap: butt; stroke-dashoffset: 0; stroke-linejoin: miter; stroke-miterlimit: 4; fill: rgb(243,122,122); fill-rule: nonzero; opacity: 1;" vector-effect="non-scaling-stroke"  cx="0" cy="0" rx="15.1562" ry="15.3208" />
</g>
		<g transform="matrix(1 0 0 1 370.86 386.75)"  >
<ellipse style="stroke: none; stroke-width: 1; stroke-dasharray: none; stroke-linecap: butt; stroke-dashoffset: 0; stroke-linejoin: miter; stroke-miterlimit: 4; fill: rgb(243,122,122); fill-rule: nonzero; opacity: 1;" vector-effect="non-scaling-stroke"  cx="0" cy="0" rx="15.1562" ry="15.3208" />
</g>
		<g transform="matrix(1 0 0 1 89.56 440.68)"  >
<ellipse style="stroke: none; stroke-width: 1; stroke-dasharray: none; stroke-linecap: butt; stroke-dashoffset: 0; stroke-linejoin: miter; stroke-miterlimit: 4; fill: rgb(243,122,122); fill-rule: nonzero; opacity: 1;" vector-effect="non-scaling-stroke"  cx="0" cy="0" rx="15.1562" ry="15.3208" />
</g>
		<g transform="matrix(1 0 0 1 159.88 440.68)"  >
<ellipse style="stroke: none; stroke-width: 1; stroke-dasharray: none; stroke-linecap: butt; stroke-dashoffset: 0; stroke-linejoin: miter; stroke-miterlimit: 4; fill: rgb(243,122,122); fill-rule: nonzero; opacity: 1;" vector-effect="non-scaling-stroke"  cx="0" cy="0" rx="15.1562" ry="15.3208" />
</g>
		<g transform="matrix(1 0 0 1 230.21 440.68)"  >
<ellipse style="stroke: none; stroke-width: 1; stroke-dasharray: none; stroke-linecap: butt; stroke-dashoffset: 0; stroke-linejoin: miter; stroke-miterlimit: 4; fill: rgb(243,122,122); fill-rule: nonzero; opacity: 1;" vector-effect="non-scaling-stroke"  cx="0" cy="0" rx="15.1562" ry="15.3208" />
</g>
		<g transform="matrix(1 0 0 1 300.53 440.68)"  >
<ellipse style="stroke: none; stroke-width: 1; stroke-dasharray: none; stroke-linecap: butt; stroke-dashoffset: 0; stroke-linejoin: miter; stroke-miterlimit: 4; fill: rgb(243,122,122); fill-rule: nonzero; opacity: 1;" vector-effect="non-scaling-stroke"  cx="0" cy="0" rx="15.1562" ry="15.3208" />
</g>
		<g transform="matrix(1 0 0 1 370.86 440.68)"  >
<ellipse style="stroke: none; stroke-width: 1; stroke-dasharray: none; stroke-linecap: butt; stroke-dashoffset: 0; stroke-linejoin: miter; stroke-miterlimit: 4; fill: rgb(243,122,122); fill-rule: nonzero; opacity: 1;" vector-effect="non-scaling-stroke"  cx="0" cy="0" rx="15.1562" ry="15.3208" />
</g>
		<g transform="matrix(1 0 0 1 -330.13 -364.54)"  >
<path style="stroke: rgb(8,183,172); stroke-width: 3; stroke-dasharray: none; stroke-linecap: butt; stroke-dashoffset: 0; stroke-linejoin: miter; stroke-miterlimit: 4; fill: none; fill-rule: nonzero; opacity: 1;" vector-effect="non-scaling-stroke"  transform=" translate(-58.87, -91.46)" d="M 69.8999 61.2831 L 47.8324 89.746 L 69.8999 121.642" stroke-linecap="round" />
</g>
		<g transform="matrix(1 0 0 1 -330.13 -307.02)"  >
<path style="stroke: rgb(8,183,172); stroke-width: 3; stroke-dasharray: none; stroke-linecap: butt; stroke-dashoffset: 0; stroke-linejoin: miter; stroke-miterlimit: 4; fill: none; fill-rule: nonzero; opacity: 1;" vector-effect="non-scaling-stroke"  transform=" translate(-58.87, -148.98)" d="M 69.8999 118.802 L 47.8324 147.265 L 69.8999 179.161" stroke-linecap="round" />
</g>
		<g transform="matrix(1 0 0 1 -330.13 -245.95)"  >
<path style="stroke: rgb(8,183,172); stroke-width: 3; stroke-dasharray: none; stroke-linecap: butt; stroke-dashoffset: 0; stroke-linejoin: miter; stroke-miterlimit: 4; fill: none; fill-rule: nonzero; opacity: 1;" vector-effect="non-scaling-stroke"  transform=" translate(-58.87, -210.05)" d="M 69.8999 179.871 L 47.8324 208.334 L 69.8999 240.23" stroke-linecap="round" />
</g>
		<g transform="matrix(1 0 0 1 -352.2 -364.54)"  >
<path style="stroke: rgb(8,183,172); stroke-width: 3; stroke-dasharray: none; stroke-linecap: butt; stroke-dashoffset: 0; stroke-linejoin: miter; stroke-miterlimit: 4; fill: none; fill-rule: nonzero; opacity: 1;" vector-effect="non-scaling-stroke"  transform=" translate(-36.8, -91.46)" d="M 47.8325 61.2831 L 25.765 89.746 L 47.8325 121.642" stroke-linecap="round" />
</g>
		<g transform="matrix(1 0 0 1 -352.2 -307.02)"  >
<path style="stroke: rgb(8,183,172); stroke-width: 3; stroke-dasharray: none; stroke-linecap: butt; stroke-dashoffset: 0; stroke-linejoin: miter; stroke-miterlimit: 4; fill: none; fill-rule: nonzero; opacity: 1;" vector-effect="non-scaling-stroke"  transform=" translate(-36.8, -148.98)" d="M 47.8325 118.802 L 25.765 147.265 L 47.8325 179.161" stroke-linecap="round" />
</g>
		<g transform="matrix(1 0 0 1 -352.2 -245.95)"  >
<path style="stroke: rgb(8,183,172); stroke-width: 3; stroke-dasharray: none; stroke-linecap: butt; stroke-dashoffset: 0; stroke-linejoin: miter; stroke-miterlimit: 4; fill: none; fill-rule: nonzero; opacity: 1;" vector-effect="non-scaling-stroke"  transform=" translate(-36.8, -210.05)" d="M 47.8325 179.871 L 25.765 208.334 L 47.8325 240.23" stroke-linecap="round" />
</g>
		<g transform="matrix(1 0 0 1 -375.97 -364.54)"  >
<path style="stroke: rgb(8,183,172); stroke-width: 3; stroke-dasharray: none; stroke-linecap: butt; stroke-dashoffset: 0; stroke-linejoin: miter; stroke-miterlimit: 4; fill: none; fill-rule: nonzero; opacity: 1;" vector-effect="non-scaling-stroke"  transform=" translate(-13.03, -91.46)" d="M 24.0674 61.2831 L 1.99988 89.746 L 24.0674 121.642" stroke-linecap="round" />
</g>
		<g transform="matrix(1 0 0 1 -375.97 -307.02)"  >
<path style="stroke: rgb(8,183,172); stroke-width: 3; stroke-dasharray: none; stroke-linecap: butt; stroke-dashoffset: 0; stroke-linejoin: miter; stroke-miterlimit: 4; fill: none; fill-rule: nonzero; opacity: 1;" vector-effect="non-scaling-stroke"  transform=" translate(-13.03, -148.98)" d="M 24.0674 118.802 L 1.99988 147.265 L 24.0674 179.161" stroke-linecap="round" />
</g>
		<g transform="matrix(1 0 0 1 -375.97 -245.95)"  >
<path style="stroke: rgb(8,183,172); stroke-width: 3; stroke-dasharray: none; stroke-linecap: butt; stroke-dashoffset: 0; stroke-linejoin: miter; stroke-miterlimit: 4; fill: none; fill-rule: nonzero; opacity: 1;" vector-effect="non-scaling-stroke"  transform=" translate(-13.03, -210.05)" d="M 24.0674 179.871 L 1.99988 208.334 L 24.0674 240.23" stroke-linecap="round" />
</g>
		<g transform="matrix(1 0 0 1 352.63 -419.23)"  >
<path style="stroke: rgb(104,96,226); stroke-width: 3; stroke-dasharray: none; stroke-linecap: butt; stroke-dashoffset: 0; stroke-linejoin: miter; stroke-miterlimit: 4; fill: none; fill-rule: nonzero; opacity: 1;" vector-effect="non-scaling-stroke"  transform=" translate(-741.63, -36.77)" d="M 711.623 19.2463 L 741.625 1.73677 L 771.627 19.2463 L 771.627 54.2934 L 741.625 71.8029 L 711.623 54.2934 L 711.623 19.2463 Z" stroke-linecap="round" />
</g>
		<g transform="matrix(0.87 0.5 -0.48 0.88 338.94 -428.63)"  >
<line style="stroke: rgb(104,96,226); stroke-width: 3; stroke-dasharray: none; stroke-linecap: butt; stroke-dashoffset: 0; stroke-linejoin: miter; stroke-miterlimit: 4; fill: none; fill-rule: nonzero; opacity: 1;" vector-effect="non-scaling-stroke"  x1="-17.57375" y1="0" x2="17.57375" y2="0" />
</g>
		<g transform="matrix(0.02 1 -1 0.02 353.4 -402.35)"  >
<line style="stroke: rgb(104,96,226); stroke-width: 3; stroke-dasharray: none; stroke-linecap: butt; stroke-dashoffset: 0; stroke-linejoin: miter; stroke-miterlimit: 4; fill: none; fill-rule: nonzero; opacity: 1;" vector-effect="non-scaling-stroke"  x1="-18.3887" y1="0" x2="18.3887" y2="0" />
</g>
		<g transform="matrix(0.86 -0.5 0.49 0.87 367.45 -428.36)"  >
<line style="stroke: rgb(104,96,226); stroke-width: 3; stroke-dasharray: none; stroke-linecap: butt; stroke-dashoffset: 0; stroke-linejoin: miter; stroke-miterlimit: 4; fill: none; fill-rule: nonzero; opacity: 1;" vector-effect="non-scaling-stroke"  x1="-18.0801" y1="0" x2="18.0801" y2="0" />
</g>
		<g transform="matrix(1 0 0 1 -299.7 392.16)"  >
<path style="stroke: rgb(104,96,226); stroke-width: 3; stroke-dasharray: none; stroke-linecap: butt; stroke-dashoffset: 0; stroke-linejoin: miter; stroke-miterlimit: 4; fill: none; fill-rule: nonzero; opacity: 1;" vector-effect="non-scaling-stroke"  transform=" translate(-89.3, -848.16)" d="M 107.2 848.158 C 107.2 858.176 99.1706 866.269 89.2999 866.269 C 79.4292 866.269 71.3999 858.176 71.3999 848.158 C 71.3999 838.141 79.4292 830.047 89.2999 830.047 C 99.1706 830.047 107.2 838.141 107.2 848.158 Z" stroke-linecap="round" />
</g>
		<g transform="matrix(1 0 0 1 -41.73 -431.49)"  >
<line style="stroke: rgb(243,122,122); stroke-width: 3; stroke-dasharray: none; stroke-linecap: butt; stroke-dashoffset: 0; stroke-linejoin: miter; stroke-miterlimit: 4; fill: none; fill-rule: nonzero; opacity: 1;" vector-effect="non-scaling-stroke"  x1="0" y1="24.513246185305" x2="0" y2="-24.513246185305" />
</g>
		<g transform="matrix(1 0 0 1 -40.83 -432.99)"  >
<line style="stroke: rgb(243,122,122); stroke-width: 3; stroke-dasharray: none; stroke-linecap: butt; stroke-dashoffset: 0; stroke-linejoin: miter; stroke-miterlimit: 4; fill: none; fill-rule: nonzero; opacity: 1;" vector-effect="non-scaling-stroke"  x1="-23.643500000000017" y1="0" x2="23.643500000000017" y2="0" />
</g>
</g>
</g>
</svg>